ply
format ascii 1.0
element vertex 1000
property float x
property float y
property float z
end_header
-10.859632 -11.775879 -0.417718
-11.383921 -11.117414 -0.554177
-10.870416 -12.013258 -0.632161
-10.811059 -11.818399 -0.569967
-11.095627 -13.504993 -0.537007
-10.798951 -12.612592 -1.305216
-11.343147 -11.687181 -0.603270
-11.280188 -11.015014 -0.504389
-11.706874 -11.763752 -0.509719
-11.948078 -13.781976 -1.282127
-13.544755 -11.816092 -0.501470
-11.680593 -12.724691 -1.459772
-9.702413 -12.907779 -1.149813
-10.432077 -11.773010 -0.648279
-12.871986 -12.471805 -1.429501
-10.635020 -12.325292 -0.948754
-10.823788 -11.473576 -0.619192
-10.686784 -12.015079 -0.929943
-9.355278 -12.337256 -1.155010
-10.693048 -11.575846 -0.613652
-10.760271 -12.378455 -0.551190
-11.437020 -11.144873 -0.559740
-10.256404 -11.658432 -0.623157
-10.849056 -11.719800 -0.604601
-10.946280 -11.880260 -0.515660
-10.987050 -12.034234 -0.407572
-13.717880 -12.849436 -0.632738
-11.766878 -11.665578 -0.448439
-12.140886 -13.655311 -1.391200
-10.165718 -11.714602 -0.714344
-12.144154 -12.731111 -1.387572
-11.998920 -14.072890 -1.032368
-12.985597 -12.187912 -1.391216
-13.480626 -13.026426 -1.407336
-13.744312 -6.508317 -0.727615
-12.065769 -13.165445 -1.393933
-12.704507 -15.014400 -1.384757
-13.427910 -12.769344 1.635229
-13.619324 -11.809135 -1.000568
-12.405814 -15.099933 -1.355249
-13.137464 -14.129553 -0.092921
-14.210711 -12.395651 -0.029891
-11.982121 -9.831646 -0.679081
-13.647100 -13.079838 1.295606
-13.186142 -13.860257 -0.640436
-12.905172 -14.366747 -1.118025
-13.726763 -12.909489 -0.621345
-13.322860 -13.581590 -0.476743
-13.523443 -13.289715 -0.131452
-13.973021 -12.234239 1.031155
-12.689382 -13.145262 -1.418342
-13.015402 -14.270110 -1.407588
-13.458845 -11.794103 0.148012
-14.743051 -10.929371 -1.315367
-14.090338 -12.462769 0.384133
-13.952397 -12.719457 0.172392
-12.124158 -9.857529 -0.672109
-13.866644 -12.632695 -0.483931
-13.582234 -13.155755 -1.266109
-12.401682 -5.984892 0.761805
-14.583178 -7.179993 0.871967
-13.835883 -11.744498 0.374635
-13.938963 -11.746851 0.283260
-14.779092 -11.114985 0.625074
-14.770930 -10.921116 -0.796061
-15.516273 -10.000867 -0.476596
-14.136367 -11.669174 0.274239
-15.656610 -9.300526 -1.407439
-14.078611 -8.135590 -1.031563
-15.261427 -7.543365 0.523167
-14.872406 -11.897314 -1.228674
-14.370446 -11.630842 -0.562307
-14.839197 -11.937408 -0.174323
-14.864754 -11.896490 -0.073751
-15.216702 -11.104736 0.216227
-15.164288 -12.046182 -0.068090
-16.341232 -11.865210 -1.197429
-16.909683 -10.555384 0.231618
-17.277615 -11.486052 0.135588
-16.017990 -12.184001 0.276169
-17.529541 -11.023621 -0.437016
-17.589180 -11.077263 0.916502
-16.702494 -11.338623 -0.473298
-16.026909 -11.334648 -0.489327
-17.540527 -11.089032 0.933744
-17.387136 -11.265546 -0.542650
-16.229616 -11.149477 -0.341454
-16.723156 -11.089111 -0.493333
-15.760396 -9.770832 0.013351
-16.404930 -12.169849 -0.244467
-16.513493 -12.211451 -0.057195
-15.955903 -10.465759 -0.423526
-16.411884 -10.046762 -0.021451
-17.170040 -10.716370 0.345284
-16.741362 -10.468186 -0.480898
-16.615068 -11.183238 -0.500610
-16.573935 -11.054865 -0.268326
-16.626856 -10.298754 0.645897
-17.618635 -10.811970 -0.299019
-16.782587 -11.064901 -0.699599
-17.541992 -10.728191 -0.256329
-15.895682 -10.563907 -0.664643
-16.919662 -10.571583 0.103390
-16.880907 -10.481137 0.391916
-16.450605 -11.637726 -0.497674
-16.826847 -11.664233 -0.017741
-16.180862 -9.828015 -0.493302
-17.324453 -10.798559 0.051064
-16.753914 -10.585598 -0.476446
-17.579607 -11.135762 -0.585713
-17.361773 -10.822221 0.007463
-17.059235 -10.661298 -0.002972
-16.609976 -12.068177 -0.000393
-17.337753 -10.686509 -0.361337
-17.548113 -10.775928 -0.293618
-17.149912 -11.439682 -0.418583
-16.663000 -10.457878 -0.496067
-16.490021 -10.950041 -0.596316
-16.597420 -10.921791 -0.578447
-17.265440 -10.645401 -0.266602
-17.454678 -10.751992 -0.269089
-16.507021 -10.446561 -0.461084
-16.724472 -10.600836 -0.623808
-16.920464 -10.509304 -0.464818
-16.524391 -10.954984 -0.576505
-17.351357 -11.301740 0.221388
-16.192987 -11.200285 -0.943760
-16.744003 -11.272751 -0.476641
-16.710247 -11.285227 -1.198743
-16.910856 -10.831983 -0.673936
-17.262405 -11.439921 -0.487564
-17.265379 -11.336294 -0.527740
-16.763399 -10.621822 -0.939936
-16.947289 -11.152841 -1.479929
-17.280857 -11.423897 0.197932
-16.285923 -10.830795 -1.224422
-17.471813 -10.837837 -0.443551
-16.136118 -11.024156 -1.217510
-16.707724 -11.201595 -0.666009
-16.805479 -10.659918 -0.676514
-16.447027 -10.986497 -0.530696
-16.255486 -11.153203 -1.541554
-15.626958 -12.369015 -0.439664
-17.214111 -11.583010 0.116144
-16.120638 -10.294901 -0.751537
-17.154030 -11.250374 -0.378943
-16.368261 -10.442002 -0.478617
-16.362286 -10.421776 -0.619183
-16.791862 -11.492475 -0.524243
-17.371979 -11.021563 -0.437655
-17.547190 -10.756264 -0.241808
-17.276241 -11.289401 -0.520488
-16.482149 -11.629981 -0.688658
-17.109514 -10.809165 -0.513037
-16.348337 -10.407333 -0.599002
-16.528399 -10.465618 -0.473673
-16.922064 -10.469812 0.110350
-16.097385 -12.167562 -1.401571
-17.174974 -11.263949 -0.355365
-17.028648 -11.639272 -0.512577
-17.221350 -10.745063 0.021128
-17.323492 -11.306082 0.260391
-16.870756 -10.413771 -0.462766
-17.350693 -11.273852 0.188055
-17.394377 -11.234503 0.191201
-16.999872 -11.919031 -0.174048
-17.365540 -11.279667 0.135738
-17.058229 -11.226140 -0.678957
-17.041031 -11.084766 -0.688639
-17.116674 -10.796078 -0.520385
-16.893103 -11.554796 -0.533599
-17.096218 -10.794454 -0.516318
-16.799725 -11.026464 -0.474529
-17.177204 -11.619205 0.306372
-16.105083 -10.310514 -0.464986
-15.493784 -10.819865 0.272413
-14.969179 -11.502195 1.130736
-15.325451 -12.232964 -1.416359
-14.116993 -8.176208 -0.994176
-15.865388 -12.263740 0.369890
-15.222085 -12.037066 0.281351
-15.467419 -11.239463 0.155499
-15.558120 -11.126868 -0.143630
-15.508985 -11.206796 -0.288575
-15.470627 -11.242926 -0.090314
-16.274542 -10.379110 -1.307559
-15.085113 -12.005444 -0.096993
-15.260114 -11.130898 -0.091306
-15.260265 -11.131113 0.121617
-14.957323 -10.962783 0.021008
-14.630810 -11.385427 0.627404
-14.911949 -10.987453 -0.630353
-14.856879 -10.983261 0.225670
-14.559184 -11.809731 -0.183003
-14.436278 -11.515096 0.645975
-14.354022 -11.583209 0.530765
-14.364271 -11.633239 -0.254434
-13.844131 -10.734157 1.189802
-14.224514 -10.142973 1.158587
-13.834782 -9.938583 1.151376
-12.545005 -9.387376 -0.718543
-13.489526 -6.364974 -0.929408
-12.934143 -8.837785 -0.957307
-14.980569 -7.309009 -1.431452
-12.502516 -9.151987 -0.980894
-12.237496 -8.980256 -0.934203
-15.960661 -6.992171 0.949277
-11.376585 -7.798982 -0.902330
-13.649619 -6.740145 -0.957434
-14.166195 -6.923176 0.407263
-12.036195 -8.363218 -0.922328
-13.105316 -8.327920 -0.933099
-12.778587 -8.765018 -0.934978
-11.807750 -9.662346 -0.513718
-12.417882 -9.144509 -0.927912
-13.193779 -8.411716 -0.949488
-12.127516 -8.811355 -1.377353
-12.616322 -9.286686 -0.931024
-12.443478 -8.565914 -0.969177
-13.154903 -8.375720 -0.914673
-8.280230 -9.404442 -1.439258
-12.230335 -8.442756 -0.978472
-11.250252 -8.865282 -0.931956
-12.674626 -8.172952 -0.929886
-11.929526 -9.770214 -0.591148
-13.932812 -7.602122 -0.934212
-11.495772 -9.584344 -0.530150
-13.718731 -6.946762 -0.994386
-13.719410 -7.513708 -1.267256
-11.083305 -8.946323 -0.775487
-11.598171 -8.055821 -0.934072
-11.553755 -7.946143 -0.906165
-12.936956 -6.380836 -1.134433
-7.124292 -9.828730 0.987285
-9.676744 -5.155764 -0.518692
-12.928946 -6.280525 -1.177511
-12.950964 -6.309266 -1.399646
-11.452338 -5.337946 0.734735
-7.695260 -8.637151 0.991914
-9.633321 -5.281071 -0.865855
-11.100049 -5.329556 1.426071
-12.049807 -5.833696 1.377241
-9.913454 -7.790217 0.255383
-11.666857 -5.499915 0.637351
-11.785375 -5.163589 0.916184
-11.412880 -6.379083 -0.922349
-8.900705 -6.651534 0.991468
-8.910598 -6.985915 0.499809
-7.956844 -8.407234 -1.309517
-8.934645 -6.659291 0.996944
-8.854904 -6.661454 0.469329
-9.191413 -7.156990 -0.820149
-9.347551 -6.022607 -0.350530
-9.175575 -7.174504 -0.036745
-10.176772 -4.625441 0.586705
-9.991266 -4.896445 0.649986
-8.978147 -6.745516 -0.535849
-11.390139 -4.444583 0.125693
-8.106659 -6.258412 -1.372751
-8.877029 -6.931949 -0.322028
-9.818166 -5.189161 1.013352
-9.029321 -6.445668 -1.627571
-9.664238 -5.279095 0.902214
-8.768498 -6.040739 -1.426449
-9.320955 -5.837983 0.324276
-9.637156 -5.185879 0.625569
-5.850560 -2.519580 0.713911
-7.477152 -6.669688 -0.286691
-7.373834 -3.571269 0.428998
-9.594491 -5.268028 -0.527396
-7.937969 -6.455671 -1.426160
-9.622849 -5.170225 -0.696503
-7.260620 -6.468188 0.929436
-6.726261 -6.145010 0.309531
-6.531575 -5.928190 0.016801
-9.720054 -4.790106 -1.417583
-9.600469 -4.545940 0.844113
-9.354901 -4.428175 0.217542
-9.044568 -4.394859 0.074352
-8.984696 -4.271102 0.641194
-7.483778 -3.761801 0.148137
-6.534253 -5.925770 0.798264
-8.902273 -4.162250 0.303516
-8.722207 -4.068130 0.461596
-7.628922 -3.764937 -0.463771
-5.472225 -4.440727 -0.824386
-5.001633 -5.276936 0.086726
-5.673828 -4.813091 -1.399288
-7.820888 -3.671865 0.732000
-5.029816 -5.101163 -0.932474
-2.863795 -3.976654 0.412413
-6.255300 -2.671847 -1.466305
-7.081383 -3.331872 0.956582
-7.171993 -3.633188 0.065155
-5.690725 -4.852676 -1.429429
-7.038207 -3.979415 -0.593226
-7.619386 -2.317035 1.730817
-7.176090 -3.225282 1.660416
-7.135330 -3.627831 -0.092680
-7.572701 -3.595729 -0.511294
-6.726516 -2.996312 1.125153
-7.845224 -3.696506 1.008819
-6.979631 -3.506545 -0.397962
-6.802004 -3.045228 0.421984
-6.840663 -3.289720 -0.222086
-6.807858 -3.064323 -0.505389
-5.285299 -2.032833 0.199182
-7.074244 -0.843503 0.551099
-5.945276 -2.626589 0.502390
-3.332526 -3.211462 -1.052642
-5.570506 -2.364276 0.449394
-6.736652 -2.990309 0.063667
-5.840809 -2.527093 0.739198
-5.911274 -2.557392 0.861623
-6.763652 -2.841738 0.191800
-5.915040 -2.567473 0.737992
-5.956356 -2.527616 -0.043837
-6.925905 -2.647511 -1.104207
-6.931672 -0.674531 -0.482874
-7.352829 -0.958969 -0.479339
-6.694530 -1.020574 0.530117
-7.579923 -1.615374 -0.570657
-7.151653 -1.312953 -1.219393
-7.222140 -2.296175 0.309908
-5.322407 -1.207901 0.470960
-6.517982 -1.221060 -1.419079
-6.923071 -1.251288 -1.254645
-7.270584 -0.777877 0.565469
-7.966249 -1.880493 0.372130
-6.926381 -1.232532 -0.613653
-7.246729 -0.867446 -0.408726
-7.139182 -1.507187 -0.154296
-7.169694 -0.756880 0.609178
-7.168025 -1.314101 -0.508677
-6.861362 -0.519681 0.486072
-7.208446 -1.327780 -0.502188
-7.961126 -1.862484 0.835847
-5.329489 -1.123318 0.102447
-8.170815 -1.485290 -0.021306
-7.071537 -0.783168 0.506543
-7.498100 -0.854553 -0.505933
-7.694985 -1.672308 -0.525643
-7.533421 -2.125790 -1.379450
-7.347926 -1.671942 -1.346076
-7.296475 -0.752498 -0.377259
-6.605689 -0.360473 0.786712
-8.119597 -1.596358 -0.050821
-7.931600 -1.156422 -0.509828
-6.979111 -0.608875 -0.507871
-7.985738 -1.181318 0.607901
-8.109242 -1.112978 1.072086
-7.840761 -0.742559 -0.209765
-7.985651 -1.115637 0.531046
-8.149851 -1.214765 -0.047096
-8.149643 -1.213567 -0.152895
-6.932248 -0.608151 -0.364313
-7.909056 -0.759649 -0.300907
-8.449488 -0.994171 0.029882
-7.984524 -0.472455 -0.072870
-7.254691 -0.744854 0.547008
-6.690382 -0.424267 0.215737
-7.543710 -1.128954 -0.640126
-8.083941 -0.339790 -0.428889
-7.701719 -0.981550 -0.381323
-8.463880 -0.026562 0.042811
-7.427550 -1.459790 -0.522379
-7.315537 -0.858809 -0.453603
-8.115265 -1.237250 0.521880
-7.080415 -0.818849 -0.354247
-8.118736 -1.299180 -0.482451
-7.483604 -0.900582 -0.236585
-8.071859 -1.208880 -0.233005
-7.026091 -0.635506 0.175109
-8.115732 -1.230680 0.134892
-8.148629 -0.113610 -0.658629
-8.981836 0.042918 0.268952
-7.505132 -1.080589 -0.364675
-7.037507 -0.859446 -0.493909
-8.026762 -1.659755 -0.534746
-7.178197 -0.744602 -0.322118
-8.439732 -0.959453 -0.117419
-7.688459 -1.000232 -0.298506
-8.531226 -0.026301 -0.532701
-7.303699 -0.811953 -0.213570
-7.493553 -1.051691 -0.514002
-7.775228 -0.567800 -0.332522
-7.525374 -0.891027 -0.231526
-7.562469 -0.993307 -0.464196
-8.107816 -0.414887 -0.305855
-7.615297 -0.671426 -0.314621
-7.510643 -1.046427 -0.483535
-7.504622 -1.048834 -0.322319
-6.643341 -0.443799 0.274605
-7.537851 -0.919897 -0.309896
-7.234852 -1.016609 -0.488536
-7.239762 -1.097615 -0.369880
-7.192235 -0.746449 -0.233585
-7.446797 -0.891786 -0.325811
-6.981716 -0.852556 -0.363728
-7.738049 -1.245369 -0.507973
-7.636286 -1.325136 -0.491495
-7.211716 -1.292467 -0.505180
-7.289889 -0.854191 -0.504842
-6.813920 -0.745453 -0.346791
-7.244597 -0.752334 -0.235229
-9.081009 -0.074661 0.607895
-7.919849 -1.118949 -0.240239
-8.027853 -1.293527 -0.479486
-6.827765 -0.784376 -0.359425
-6.721265 -0.426636 -0.015292
-7.259067 -0.771357 -0.239236
-7.650729 -1.050883 -0.275587
-8.122511 -1.499027 0.128696
-7.528997 -0.973842 -0.441547
-7.605799 -0.988338 -0.310747
-5.457877 -0.283667 -0.307208
-8.219199 -1.294132 -0.324308
-6.638741 -0.366143 0.179942
-8.053800 -1.467062 -0.486136
-8.029652 -1.189249 0.497736
-7.091476 -0.714402 0.579029
-7.576462 -1.414511 -0.504436
-7.600642 -1.369206 -0.500371
-7.342922 -1.755386 -0.598889
-7.956349 -1.903022 0.070004
-7.607294 -1.218918 0.067815
-7.498629 -0.933435 0.809991
-7.443396 -0.860901 -0.308775
-8.147994 -1.495687 -0.199163
-8.090610 -1.631290 -0.068032
-7.967713 -1.867679 -0.135525
-8.121495 -1.216177 -0.307844
-6.720870 -0.440181 -0.447567
-7.066401 -0.927971 -0.503341
-8.129512 -1.225977 0.066208
-7.079913 -0.902911 -0.503316
-7.359089 -0.916185 -0.427493
-7.258992 -0.837888 -0.293249
-7.002851 -1.527122 -0.141308
-7.038145 -0.652866 -0.289109
-7.079857 -0.645618 -0.534071
-6.004356 -2.464486 0.334665
-7.073643 -0.880956 -0.293080
-6.696774 -0.410401 0.671849
-7.275091 -0.795908 0.610991
-7.410864 -1.441978 -0.492582
-6.794341 -0.450079 0.529143
-7.555475 -1.023096 -0.495486
-7.322023 -0.836445 -0.314094
-7.353539 -1.366431 -0.498806
-5.276521 -0.463890 -1.052366
-6.824514 -1.167033 -0.625582
-5.609155 0.017895 -0.892958
-6.838218 -0.474986 -0.414406
-7.450224 -1.026997 -0.518209
-6.543171 -0.313626 0.825671
-7.336629 -0.849226 -0.286512
-7.097798 -0.672594 0.148022
-5.306127 -0.817443 -1.347607
-7.117534 -0.718025 0.572567
-7.174713 -0.746216 -0.350099
-7.103887 -0.671239 0.310229
-7.541973 -1.086001 -0.541046
-6.655013 -0.472505 -0.142630
-6.646682 -0.394370 0.699263
-6.675749 -0.528733 -0.080962
-5.546868 0.049714 -0.569144
-5.711527 1.217442 -0.174302
-6.565200 -0.347724 0.249377
-6.361537 -0.182212 1.001759
-6.113379 -0.371340 1.197585
-6.734373 -0.375163 -0.517183
-6.765559 -0.449889 -0.295585
-6.790068 -0.456575 0.532491
-7.104456 -0.809485 -0.275872
-6.745043 -0.409513 0.197120
-6.649655 -0.367307 0.828339
-7.051025 -0.877195 -0.412841
-5.562876 0.042745 -1.408494
-6.509887 -0.329456 0.695562
-6.709214 -0.428782 -1.067479
-6.886937 -0.493645 0.834815
-6.556108 -0.555171 -1.153510
-5.243741 -0.308683 -0.084360
-5.326176 -0.238704 -0.049418
-6.725215 -0.366593 -0.714216
-6.610813 -0.365922 -0.025605
-5.461422 0.349572 -0.356338
-5.630580 0.031766 -1.170350
-6.618443 -0.339733 0.828948
-6.618574 -0.365255 0.372204
-7.300858 -1.462133 -0.902647
-6.641324 -0.396140 0.142858
-6.781841 -0.431411 0.404116
-7.193026 1.209790 -0.646549
-6.990459 -0.739663 0.021832
-7.690700 -0.953848 -0.345014
-8.035689 -1.668018 0.278589
-7.043809 -0.817057 -0.481669
-5.994042 -2.465257 0.497346
-5.917592 -2.395397 0.992084
-5.916200 -2.402755 0.261615
-7.440355 -0.906726 0.789180
-5.918646 -2.396065 -0.310718
-7.697186 -1.429459 1.200294
-7.022853 -0.605922 -0.364191
-7.012048 -1.298315 -0.502888
-7.247755 -1.399388 -0.612145
-7.958340 -1.886865 -0.412446
-7.975347 -1.837224 0.275199
-7.249825 -2.241093 -1.419214
-7.273849 -2.214606 0.106898
-7.953203 -1.871509 0.279082
-7.951720 -1.871009 -0.031358
-7.259344 -2.257450 -0.129449
-7.140600 -2.390970 0.253837
-7.956278 -1.888644 0.085507
-8.469633 -0.025329 -0.096780
-7.966264 -1.874449 0.364287
-8.109648 -1.490874 -0.489089
-7.820084 -1.625029 0.122262
-7.952361 -1.873847 -0.019920
-7.544991 -1.508210 -0.499679
-8.155573 -1.119343 0.404874
-7.942269 -1.893945 0.545598
-8.066578 -1.662176 0.139692
-7.577299 -2.569036 0.051813
-7.710559 -2.606926 0.197366
-7.565575 -2.585686 -0.247719
-7.960537 -1.875590 0.210555
-7.972787 -1.839972 0.395778
-7.884937 -1.149641 -0.462123
-7.468040 -1.846019 -0.674284
-7.291307 -1.029281 -0.546063
-8.220345 -0.536099 0.132228
-7.065227 -1.713326 -0.240855
-8.002932 -1.919946 0.186740
-7.894841 -1.138944 0.677056
-7.961904 -1.892081 0.094992
-8.072530 -1.662071 0.258417
-7.015441 -1.500266 -1.376278
-8.265588 -1.294626 0.753279
-7.832445 -1.943043 -1.412864
-8.009447 1.252500 0.596817
-7.940465 -1.127846 -0.240472
-8.141294 -1.263125 -0.328660
-6.992091 -1.565689 -1.091570
-6.935511 -0.826105 -0.528362
-5.697345 1.300770 -0.718812
-7.451861 -1.537223 -0.508164
-6.674557 -1.116480 -0.510163
-6.804834 -1.448292 -1.445825
-6.502702 -0.683715 -1.381349
-6.600801 -0.331972 -0.069766
-6.817241 -0.444638 0.240180
-7.525126 -1.501335 -0.490055
-7.044369 -0.624748 0.488242
-4.975230 -0.347015 0.010392
-5.416164 -1.466254 0.162786
-6.861588 -0.515889 0.738788
-6.668081 -0.398240 0.409756
-6.697087 -0.415647 -0.033294
-5.533153 -0.016348 -0.323298
-6.520820 -0.297335 0.949103
-5.430403 -1.494221 0.113386
-7.328436 -1.407380 -0.502743
-6.729646 -0.417880 0.261185
-6.244605 -1.554833 -1.249358
-7.051894 -0.608081 -0.046122
-6.706404 -0.472224 -0.851900
-6.630712 -1.091789 -0.547068
-6.768223 -0.483550 0.354936
-6.825369 -0.456020 0.401177
-7.115582 -1.285859 -0.500109
-5.303811 -0.101327 0.420379
-5.212973 -0.386567 -0.181398
-6.993341 -1.299239 -0.904758
-5.426897 -0.067997 -0.407753
-7.047999 -0.607166 0.277704
-5.698290 1.282340 -0.043589
-7.051486 -0.603319 -0.150385
-6.883746 -1.338421 -1.401623
-6.814187 -0.461953 0.800803
-7.121320 -0.817214 -0.285869
-7.330079 -1.466492 -0.516932
-6.862238 -0.493865 0.261129
-7.362297 -0.830650 -0.298915
-6.858217 -1.218362 -0.507415
-7.043848 -0.614294 -0.252692
-7.393880 -0.856879 -0.232737
-7.046370 -2.494847 -1.153073
-7.357642 -1.359848 -0.508715
-8.121349 -1.927604 -0.675273
-7.497009 -1.547088 -0.759044
-7.955498 -1.851423 0.052223
-7.639415 -1.112488 -0.522183
-7.971784 -1.838236 -1.415904
-7.518275 -1.501051 -0.505138
-7.496643 -1.480605 -0.496483
-7.034040 -0.680481 0.569091
-8.578939 -0.706879 0.379840
-5.426360 -0.547545 -1.229423
-6.887202 -0.790513 -0.355457
-7.347697 -2.139121 -0.489114
-8.139705 -1.523067 0.257172
-8.126725 -1.545192 0.131150
-7.917213 -1.117420 -0.238001
-6.829839 -1.804981 -1.464287
-7.369239 -0.830864 -0.234372
-8.433159 -0.980952 -0.172036
-8.375372 -1.080102 -0.174181
-7.987407 -1.155548 -0.237293
-7.366991 -0.818793 -0.300907
-7.450027 -0.967813 -0.496796
-7.703421 -1.182173 -0.505373
-7.707255 -0.993745 -0.234780
-7.780134 -0.906165 -0.094601
-7.413752 -0.830333 -0.225407
-7.484437 -0.890682 -0.309133
-7.889547 -1.102270 -0.239084
-7.672448 -0.976664 -0.233715
-7.751681 -1.173191 -0.492827
-7.680808 -1.008990 -0.319195
-8.127379 -0.234103 -0.485340
-8.069466 -1.181902 0.264033
-8.207844 -1.421026 0.245625
-7.728997 -0.999028 -0.225004
-8.157063 -0.244947 -0.547239
-7.906170 -1.110038 -0.302841
-6.885198 -1.231267 -0.511008
-7.928389 -1.117608 -0.233040
-8.064086 -1.182358 -0.232391
-7.552742 -1.119355 -0.663748
-7.142744 -1.113420 -0.519298
-7.484455 -1.046982 -0.535968
-7.400747 -0.895662 -0.417134
-7.664237 -1.146724 -0.533143
-7.311534 -1.250266 -0.411715
-7.574094 -0.983370 -0.532906
-8.427456 -0.959719 0.022918
-7.291014 -1.297620 -0.466861
-7.380354 -1.442449 -0.537904
-8.368026 -1.082318 0.381096
-7.804219 -1.286510 -0.505234
-7.176829 -0.719885 -0.468126
-7.006170 -0.656862 0.555895
-7.636005 -0.982932 -0.320362
-7.587701 -1.088765 -0.510288
-7.382401 -1.361630 -0.541326
-7.145461 -0.735317 -0.506638
-7.366107 -0.981956 -0.534684
-7.108550 -0.664149 -0.130509
-8.497197 -0.068371 0.294291
-7.482331 -0.888158 -0.236707
-7.610227 -0.935196 -0.350619
-5.099908 0.059574 0.617252
-8.079553 -1.666367 0.392969
-7.498792 -0.881976 0.591977
-8.192677 -1.424237 -0.262488
-7.192527 -0.731416 -0.238756
-7.496752 -0.920631 0.816266
-8.953779 0.327955 -0.332748
-8.517935 -0.780660 0.348605
-8.060665 -1.670247 -0.511503
-8.006593 -1.750025 -0.501689
-7.540058 -0.817792 -0.256541
-7.787239 -1.079145 0.645640
-7.968898 -1.841260 -0.088525
-7.993512 -1.796957 0.470031
-7.828897 -1.128663 0.704843
-7.653588 -1.020792 0.685002
-6.583198 -0.335961 0.515125
-7.676761 -1.310055 -0.501218
-7.627218 -1.005879 -0.468468
-7.417357 -1.085240 -0.599087
-8.443109 -0.133122 -0.365746
-7.306540 -1.028705 -1.152719
-7.839480 -0.240427 0.070768
-7.701378 -1.032088 -0.492272
-6.934365 -0.567633 -0.378315
-7.421571 -0.967811 -0.516583
-7.451650 -0.898366 0.684230
-6.560482 -0.337418 0.516053
-7.561815 -0.924075 0.596397
-7.572545 -1.009931 -0.549042
-7.602018 -0.984993 -0.308296
-7.743514 -1.010248 -0.368938
-8.492006 -0.079085 -0.216141
-7.420925 -0.396568 -0.420539
-8.053683 -0.993229 1.171839
-7.698387 -0.954582 0.792652
-7.902818 -0.924046 1.047792
-8.256364 -1.350316 -0.391999
-7.315473 -0.872823 -0.662896
-7.621208 -1.170483 -0.500262
-7.895812 -0.486677 0.098252
-7.943653 -1.888273 0.075611
-7.952550 -1.426984 -0.513542
-6.777153 -0.456493 0.313977
-7.967751 -1.839740 0.335673
-8.032691 -1.215269 0.570685
-7.811352 -1.092833 0.740581
-7.138337 -0.761977 -0.497917
-7.529591 -1.074571 0.209223
-7.427294 -0.849927 0.770918
-7.980882 -1.839610 0.296663
-7.499937 -1.137751 -0.647473
-7.461620 -0.877263 0.754767
-7.966819 -1.838822 0.835963
-7.540066 -1.064141 -0.494487
-7.783569 -1.018134 -0.223867
-7.591390 -1.470424 -0.498464
-7.947783 -1.140550 0.657304
-8.456820 -0.117990 -0.100003
-8.488413 -0.085031 0.570632
-8.073171 -1.658630 0.185154
-8.668899 0.706859 0.327498
-6.767420 -0.443617 0.248720
-6.725193 -0.441429 0.776249
-7.607163 -1.077414 -0.509579
-7.533919 -1.082201 -0.534265
-7.427001 -1.013001 -0.542690
-7.986266 -0.215294 0.246298
-7.503524 -0.864781 0.594175
-7.355127 -0.966078 -0.491956
-7.662642 -0.712550 0.675237
-7.149849 -0.687922 0.484412
-7.774713 -1.127273 -0.477969
-7.150746 -0.668326 -0.303947
-6.602387 -0.407349 0.094842
-8.478874 -0.936178 -0.065595
-7.402991 -0.827502 -0.351270
-7.714020 -1.234060 1.090074
-8.558169 -0.889654 -0.451445
-7.108326 -0.645205 -0.083070
-6.701347 -0.413205 0.286660
-7.434494 -0.877295 0.779186
-8.574915 -0.705688 0.749579
-7.051690 -1.024177 -0.132489
-8.100328 -1.660584 0.301006
-8.087401 -1.233363 0.575038
-6.704796 -0.586717 0.707769
-7.370343 -0.809646 -0.304827
-7.091784 -0.717996 0.296925
-6.858251 -0.494336 0.880642
-6.989496 -0.549666 -0.402382
-8.011141 -1.137388 0.495724
-8.078843 -1.656929 -0.123511
-6.692086 -0.409246 0.825825
-6.605463 -0.399102 0.068838
-8.739717 0.818354 0.288836
-8.052310 -1.158629 0.488037
-7.256415 -0.981209 0.470392
-8.127452 -1.329091 -0.418681
-9.209443 0.370551 -0.686377
-7.346213 -0.787620 -0.229694
-6.645458 -0.388155 0.768661
-6.700043 -0.430582 -0.006793
-8.189123 -0.058035 -0.388593
-7.114791 -0.075660 -0.998451
-7.623491 -0.319638 -0.235946
-6.959701 -0.850353 -0.485838
-7.229945 -1.332470 -0.502786
-7.445625 -0.871543 0.755910
-7.081591 -1.350484 -0.481416
-7.881380 -1.155984 -0.417440
-6.700478 -1.105138 -0.869304
-7.525521 -0.885964 -0.369731
-6.973655 -1.263952 -0.621615
-8.069003 -1.182167 0.353532
-8.575514 -0.703564 0.579862
-8.116372 -1.415434 -0.484463
-7.493714 -1.083053 -0.382342
-7.034206 -0.667976 0.074234
-7.346915 -0.800396 -0.305469
-7.591291 -1.467140 -0.492186
-7.358070 -1.449072 -1.062544
-5.417586 -1.096841 -1.415631
-8.070160 -1.950322 0.741110
-7.057862 -1.171981 1.083147
-7.786098 -1.024811 0.775196
-5.465808 0.267439 1.153166
-8.494120 -0.069383 -0.417874
-8.484266 -0.086402 0.031757
-6.928770 -1.573934 0.031383
-7.954676 -1.106972 -0.358142
-7.984951 -2.017265 1.074119
-7.044211 -0.622888 0.147819
-7.890172 -1.245755 -0.475259
-7.377501 -1.006506 -0.615404
-7.604983 -1.612149 -0.886579
-7.521570 -0.937450 0.667151
-7.351104 -1.476172 -0.515287
-6.813671 -1.263558 -0.466851
-7.340361 -2.133995 0.170602
-7.148899 -2.377981 0.514557
-7.093327 -0.690307 0.246359
-8.480330 -0.089316 0.128167
-6.588597 -0.509300 -1.167915
-7.177367 -1.061613 0.805851
-7.784055 -1.084789 1.012736
-6.979476 -0.781659 1.239888
-7.280319 -2.226974 0.293844
-7.641747 -1.243215 -0.548440
-7.344500 -2.134675 0.497520
-7.270445 -2.226183 0.055697
-5.435367 0.421437 0.128498
-7.232317 -2.265057 1.019550
-6.537621 -0.335477 0.427919
-7.610893 -1.022988 -0.449733
-9.066957 0.417521 0.209109
-7.660400 -1.206180 -0.544504
-6.841611 -0.490009 0.655392
-6.606547 -0.376995 0.264656
-6.867941 -0.472486 -0.103730
-6.654561 -1.067954 -0.713543
-6.656610 -2.167660 -0.850261
-6.456440 1.459590 -1.468760
-6.801590 -1.186787 -0.510184
-6.646323 -1.590643 -1.422517
-5.309628 -1.179952 0.095380
-6.676830 -1.080952 -1.359986
-6.300875 1.181828 -1.043164
-6.554151 -2.166932 -1.352115
-7.796631 -1.721476 -0.535977
-7.065172 -1.306092 -0.692751
-7.361393 -2.145329 -0.497313
-5.403231 -0.912925 -1.000181
-7.142380 -2.479363 -1.173666
-6.589281 -1.956458 -1.118022
-6.631352 -1.921151 -1.049565
-6.610819 -2.226310 -1.225088
-7.225573 -1.377550 -1.311396
-5.912621 -2.393306 -1.393332
-7.320849 -1.433723 -1.310146
-7.002440 -1.278952 -0.864305
-6.598245 -2.185618 -1.094268
-6.810855 -0.731269 -0.362968
-6.982286 -1.263379 -0.975158
-6.621103 -1.058978 -0.584930
-7.537672 -1.494527 -0.493724
-6.923919 -1.238364 -0.561954
-5.373111 -1.379272 0.296235
-6.612534 -1.937018 -0.522498
-6.953837 -1.129655 -0.510160
-6.579121 -1.884693 -0.931225
-7.626776 -1.611276 -0.646569
-6.652319 -1.102623 -0.512164
-7.332306 -0.927923 -0.483220
-6.831946 -0.702664 -0.440639
-5.445118 0.096402 0.068855
-6.597402 -0.378373 0.131889
-6.950660 -1.865875 -1.375848
-6.787962 -0.446129 0.226896
-7.142101 -0.723785 -0.512519
-7.383779 -1.499120 -0.532207
-6.972141 -1.490882 -1.411648
-7.103209 -0.771938 -0.350971
-5.432187 -1.478979 0.013549
-6.291584 -2.253159 -1.355849
-5.370289 -5.076464 -1.381751
-5.367498 -1.228993 -1.322907
-6.775982 -1.194638 -1.432562
-7.225598 -0.688517 0.520968
-7.164609 -0.645665 -0.238019
-6.907733 -1.221469 -0.642747
-8.593514 -0.696770 0.074163
-8.850016 0.996552 -0.570379
-7.955164 -1.875516 0.413547
-7.956798 -1.873849 -0.087811
-7.664586 -1.481156 1.174616
-6.854167 -0.708093 -0.462636
-7.268975 -2.222340 0.052020
-6.639781 -0.377892 0.757185
-6.890802 -0.389751 0.442337
-7.324396 -2.137827 0.224514
-5.421479 -0.018826 -1.367634
-6.890652 -1.595214 0.269919
-7.044150 -2.491646 0.306664
-7.091775 -2.440424 0.421270
-8.499662 -0.070565 0.240115
-7.360539 -2.128633 0.519496
-7.277199 -2.221295 -0.120822
-7.968690 -1.871076 0.435882
-7.490513 -0.904884 0.777806
-7.186979 -2.329065 0.524159
-7.139457 -1.982243 -1.417244
-7.173052 -2.341720 -0.062301
-8.206724 -1.476591 -0.178777
-7.915527 -1.580909 -0.504003
-7.754008 -1.016910 -0.502767
-8.107526 -1.292590 -0.435841
-5.213234 -0.312881 0.086892
-7.140061 -1.349633 -0.693557
-7.103868 -1.303937 -0.777837
-6.480088 -1.194311 -1.426282
-6.810247 -1.178532 -1.259761
-5.977190 -2.495192 -0.436014
-5.910485 -2.569010 0.523102
-5.045340 -0.294341 0.013631
-5.168902 -1.063991 -0.956903
-5.881941 -5.661811 0.939177
-5.236816 -5.015104 -0.983308
-6.518205 -4.469715 1.648507
-7.615547 -3.587276 0.942797
-4.488946 -4.535732 -0.638415
-5.582389 -4.659244 -0.810521
-6.973661 -6.446249 -1.360221
-5.558418 -5.612198 -1.312038
-6.139216 -4.982335 -0.765297
-5.270402 -5.419495 1.056436
-4.785813 -5.002196 0.278334
-4.979186 -4.546365 -0.608667
-5.451245 -7.742326 -2.197899
-5.712748 -5.744756 1.013137
-6.089440 -5.589903 -1.264194
-8.305468 -7.840644 -0.867334
-7.789001 -3.855212 -0.498132
-6.095311 -5.879210 -1.293030
-7.960456 -4.311447 -1.055245
-7.373254 -9.263678 0.625693
-7.452981 -9.192385 -1.179017
-7.962968 -3.776427 0.129754
-9.674618 -5.151584 0.691419
-9.582926 -4.554513 0.556844
-9.634531 -5.134770 0.314457
-8.268129 -3.830884 0.598263
-8.145111 -4.152279 0.337730
-8.816295 -5.095085 -1.421567
-9.284193 -6.008928 0.019417
-7.585950 -4.087718 -0.834921
-8.949861 -4.190838 1.141057
-8.232617 -7.254601 0.210497
-9.668228 -5.241141 0.148201
-9.250827 -6.067081 0.661241
-8.183935 -7.810440 -1.433759
-9.311593 -5.924965 0.174330
-8.981472 -4.247714 0.298416
-8.423043 -5.647696 -1.421580
-8.828300 -4.110006 -0.596936
-7.908579 -8.466897 0.629828
-6.424987 -10.177988 0.634775
-5.703369 -7.142877 -2.148713
-7.029683 -9.944250 0.635861
-8.213718 -6.994657 0.512388
-6.606668 -9.998961 -0.748818
-11.708263 -8.812682 -1.063190
-9.666294 -5.083010 0.242581
-9.347884 -5.738255 -1.331549
-8.811085 -6.662313 -0.939120
-8.763706 -6.757897 -0.222167
-9.081746 -6.259184 -1.410994
-8.836019 -5.450621 -1.003370
-7.480465 -6.657683 -0.982837
-8.869051 -6.678104 -0.197548
-8.567448 -6.982146 -1.335298
-8.744055 -6.541237 -1.109857
-8.862226 -6.668406 -0.016778
-8.739609 -6.472932 -0.636429
-8.978748 -6.744425 0.112949
-9.238299 -6.051908 0.155384
-9.239665 -6.059612 -0.107072
-7.891880 -6.973172 -1.437263
-11.247829 -5.881094 -0.464732
-12.650466 -6.156275 0.096259
-13.989288 -6.809801 0.921943
-9.705199 -5.091268 0.165459
-10.958059 -4.216176 0.871279
-11.088625 -6.090948 -0.822626
-9.674284 -7.253268 -1.382664
-12.292998 -6.461428 -0.976628
-11.023651 -6.310541 -0.727422
-11.372885 -6.247313 1.608127
-11.740074 -7.693911 -0.913414
-11.576588 -7.625548 -0.952309
-7.517320 -9.180734 -0.614680
-8.126185 -8.026335 -1.334441
-7.879779 -8.585103 0.929399
-11.698956 -9.196282 -0.944719
-11.044280 -8.364394 -0.955858
-11.001668 -8.414692 1.123593
-11.529372 -7.712305 -0.904293
-8.314664 -8.256889 -0.634003
-11.582828 -8.531940 1.012852
-11.077814 -8.509725 -0.610679
-10.058080 -12.685795 1.335290
-11.353189 -7.689099 -0.931586
-8.291559 -11.413448 -0.915455
-9.875828 -12.684587 0.770734
-11.328198 -9.596776 -0.759965
-10.956032 -9.264214 -0.661959
-12.918108 -8.316307 -0.913127
-11.049162 -8.586544 -0.774332
-14.394154 -6.914278 0.726252
-9.823192 -10.544828 -0.933881
-10.932170 -6.114178 -0.724700
-15.744001 -9.160255 -1.288910
-10.684368 -9.326726 -1.397533
-10.966641 -9.211161 -0.665973
-11.380312 -7.725941 -1.313510
